<svg width="1500" height="555" viewBox="0 0 1500 555" fill="none" xmlns="http://www.w3.org/2000/svg">
<g opacity="0.1">
<rect x="0.707642" y="0.25" width="115.564" height="110.955" stroke="#111111" stroke-opacity="0.5" stroke-width="0.5"/>
<rect x="115.998" y="0.25" width="115.564" height="110.955" stroke="#111111" stroke-opacity="0.5" stroke-width="0.5"/>
<rect x="231.288" y="0.25" width="115.564" height="110.955" stroke="#111111" stroke-opacity="0.5" stroke-width="0.5"/>
<rect x="346.327" width="116.064" height="111.455" fill="#000AFF" fill-opacity="0.3"/>
<rect x="461.867" y="0.25" width="115.564" height="110.955" stroke="#111111" stroke-opacity="0.5" stroke-width="0.5"/>
<rect x="577.157" y="0.25" width="115.564" height="110.955" stroke="#111111" stroke-opacity="0.5" stroke-width="0.5"/>
<rect x="692.447" y="0.25" width="115.564" height="110.955" stroke="#111111" stroke-opacity="0.5" stroke-width="0.5"/>
<rect x="807.737" y="0.25" width="115.564" height="110.955" stroke="#111111" stroke-opacity="0.5" stroke-width="0.5"/>
<rect x="922.777" width="116.064" height="111.455" fill="#000AFF" fill-opacity="0.3"/>
<rect x="1038.32" y="0.25" width="115.564" height="110.955" stroke="#111111" stroke-opacity="0.5" stroke-width="0.5"/>
<rect x="1153.61" y="0.25" width="115.564" height="110.955" stroke="#111111" stroke-opacity="0.5" stroke-width="0.5"/>
<rect x="1268.9" y="0.25" width="115.564" height="110.955" stroke="#111111" stroke-opacity="0.5" stroke-width="0.5"/>
<rect x="1384.19" y="0.25" width="115.564" height="110.955" stroke="#111111" stroke-opacity="0.5" stroke-width="0.5"/>
<rect x="0.457642" y="110.712" width="116.064" height="111.455" fill="#000AFF" fill-opacity="0.3"/>
<rect x="115.998" y="110.962" width="115.564" height="110.955" stroke="#111111" stroke-opacity="0.5" stroke-width="0.5"/>
<rect x="231.288" y="110.962" width="115.564" height="110.955" stroke="#111111" stroke-opacity="0.5" stroke-width="0.5"/>
<rect x="346.577" y="110.962" width="115.564" height="110.955" stroke="#111111" stroke-opacity="0.5" stroke-width="0.5"/>
<rect x="461.867" y="110.962" width="115.564" height="110.955" stroke="#111111" stroke-opacity="0.5" stroke-width="0.5"/>
<rect x="577.157" y="110.962" width="115.564" height="110.955" stroke="#111111" stroke-opacity="0.5" stroke-width="0.5"/>
<rect x="692.447" y="110.962" width="115.564" height="110.955" stroke="#111111" stroke-opacity="0.5" stroke-width="0.5"/>
<rect x="807.737" y="110.962" width="115.564" height="110.955" stroke="#111111" stroke-opacity="0.5" stroke-width="0.5"/>
<rect x="923.027" y="110.962" width="115.564" height="110.955" stroke="#111111" stroke-opacity="0.5" stroke-width="0.5"/>
<rect x="1038.32" y="110.962" width="115.564" height="110.955" stroke="#111111" stroke-opacity="0.5" stroke-width="0.5"/>
<rect x="1153.61" y="110.962" width="115.564" height="110.955" stroke="#111111" stroke-opacity="0.5" stroke-width="0.5"/>
<rect x="1268.65" y="110.712" width="116.064" height="111.455" fill="#000AFF" fill-opacity="0.3"/>
<rect x="1384.19" y="110.962" width="115.564" height="110.955" stroke="#111111" stroke-opacity="0.5" stroke-width="0.5"/>
<rect x="0.707642" y="221.674" width="115.564" height="110.955" stroke="#111111" stroke-opacity="0.5" stroke-width="0.5"/>
<rect x="115.998" y="221.674" width="115.564" height="110.955" stroke="#111111" stroke-opacity="0.5" stroke-width="0.5"/>
<rect x="231.038" y="221.424" width="116.064" height="111.455" fill="#000AFF" fill-opacity="0.3"/>
<rect x="346.577" y="221.674" width="115.564" height="110.955" stroke="#111111" stroke-opacity="0.5" stroke-width="0.5"/>
<rect x="461.867" y="221.674" width="115.564" height="110.955" stroke="#111111" stroke-opacity="0.5" stroke-width="0.5"/>
<rect x="577.157" y="221.674" width="115.564" height="110.955" stroke="#111111" stroke-opacity="0.5" stroke-width="0.5"/>
<rect x="692.447" y="221.674" width="115.564" height="110.955" stroke="#111111" stroke-opacity="0.5" stroke-width="0.5"/>
<rect x="807.737" y="221.674" width="115.564" height="110.955" stroke="#111111" stroke-opacity="0.5" stroke-width="0.5"/>
<rect x="923.027" y="221.674" width="115.564" height="110.955" stroke="#111111" stroke-opacity="0.5" stroke-width="0.5"/>
<rect x="1038.32" y="221.674" width="115.564" height="110.955" stroke="#111111" stroke-opacity="0.5" stroke-width="0.5"/>
<rect x="1153.61" y="221.674" width="115.564" height="110.955" stroke="#111111" stroke-opacity="0.5" stroke-width="0.5"/>
<rect x="1268.9" y="221.674" width="115.564" height="110.955" stroke="#111111" stroke-opacity="0.5" stroke-width="0.5"/>
<rect x="1384.19" y="221.674" width="115.564" height="110.955" stroke="#111111" stroke-opacity="0.5" stroke-width="0.5"/>
<rect x="0.707642" y="332.386" width="115.564" height="110.955" stroke="#111111" stroke-opacity="0.5" stroke-width="0.5"/>
<rect x="115.998" y="332.386" width="115.564" height="110.955" stroke="#111111" stroke-opacity="0.5" stroke-width="0.5"/>
<rect x="231.288" y="332.386" width="115.564" height="110.955" stroke="#111111" stroke-opacity="0.5" stroke-width="0.5"/>
<rect x="346.577" y="332.386" width="115.564" height="110.955" stroke="#111111" stroke-opacity="0.5" stroke-width="0.5"/>
<rect x="461.867" y="332.386" width="115.564" height="110.955" stroke="#111111" stroke-opacity="0.5" stroke-width="0.5"/>
<rect x="577.157" y="332.386" width="115.564" height="110.955" stroke="#111111" stroke-opacity="0.5" stroke-width="0.5"/>
<rect x="692.447" y="332.386" width="115.564" height="110.955" stroke="#111111" stroke-opacity="0.5" stroke-width="0.5"/>
<rect x="807.737" y="332.386" width="115.564" height="110.955" stroke="#111111" stroke-opacity="0.5" stroke-width="0.5"/>
<rect x="923.027" y="332.386" width="115.564" height="110.955" stroke="#111111" stroke-opacity="0.5" stroke-width="0.5"/>
<rect x="1038.32" y="332.386" width="115.564" height="110.955" stroke="#111111" stroke-opacity="0.5" stroke-width="0.5"/>
<rect x="1153.36" y="332.136" width="116.064" height="111.455" fill="#000AFF" fill-opacity="0.3"/>
<rect x="1268.9" y="332.386" width="115.564" height="110.955" stroke="#111111" stroke-opacity="0.5" stroke-width="0.5"/>
<rect x="1384.19" y="332.386" width="115.564" height="110.955" stroke="#111111" stroke-opacity="0.5" stroke-width="0.5"/>
<rect y="442.848" width="116.064" height="111.455" fill="#000AFF" fill-opacity="0.3"/>
<rect x="115.998" y="443.098" width="115.564" height="110.955" stroke="#111111" stroke-opacity="0.5" stroke-width="0.5"/>
<rect x="231.288" y="443.098" width="115.564" height="110.955" stroke="#111111" stroke-opacity="0.5" stroke-width="0.5"/>
<rect x="346.577" y="443.098" width="115.564" height="110.955" stroke="#111111" stroke-opacity="0.5" stroke-width="0.5"/>
<rect x="461.867" y="443.098" width="115.564" height="110.955" stroke="#111111" stroke-opacity="0.5" stroke-width="0.5"/>
<rect x="576.907" y="442.848" width="116.064" height="111.455" fill="#000AFF" fill-opacity="0.3"/>
<rect x="692.446" y="443.098" width="115.564" height="110.955" stroke="#111111" stroke-opacity="0.5" stroke-width="0.5"/>
<rect x="807.737" y="443.098" width="115.564" height="110.955" stroke="#111111" stroke-opacity="0.5" stroke-width="0.5"/>
<rect x="923.027" y="443.098" width="115.564" height="110.955" stroke="#111111" stroke-opacity="0.5" stroke-width="0.5"/>
<rect x="1038.32" y="443.098" width="115.564" height="110.955" stroke="#111111" stroke-opacity="0.5" stroke-width="0.5"/>
<rect x="1153.61" y="443.098" width="115.564" height="110.955" stroke="#111111" stroke-opacity="0.5" stroke-width="0.5"/>
<rect x="1268.9" y="443.098" width="115.564" height="110.955" stroke="#111111" stroke-opacity="0.5" stroke-width="0.5"/>
<rect x="1383.94" y="442.848" width="116.064" height="111.455" fill="#000AFF" fill-opacity="0.3"/>
</g>
</svg>
